<?xml version="1.0" encoding="UTF-8" standalone="no"?>
<!-- Created with Inkscape (http://www.inkscape.org/) -->

<svg
   width="80.173248mm"
   height="47.453045mm"
   viewBox="0 0 80.173248 47.453045"
   version="1.1"
   id="svg5"
   inkscape:version="1.2.2 (b0a8486541, 2022-12-01)"
   sodipodi:docname="preview_img.svg"
   xmlns:inkscape="http://www.inkscape.org/namespaces/inkscape"
   xmlns:sodipodi="http://sodipodi.sourceforge.net/DTD/sodipodi-0.dtd"
   xmlns="http://www.w3.org/2000/svg"
   xmlns:svg="http://www.w3.org/2000/svg">
  <sodipodi:namedview
     id="namedview7"
     pagecolor="#ffffff"
     bordercolor="#000000"
     borderopacity="0.25"
     inkscape:showpageshadow="2"
     inkscape:pageopacity="0.0"
     inkscape:pagecheckerboard="0"
     inkscape:deskcolor="#d1d1d1"
     inkscape:document-units="mm"
     showgrid="false"
     inkscape:zoom="1.0204171"
     inkscape:cx="440.99614"
     inkscape:cy="479.2158"
     inkscape:window-width="1920"
     inkscape:window-height="1011"
     inkscape:window-x="0"
     inkscape:window-y="0"
     inkscape:window-maximized="1"
     inkscape:current-layer="text8177" />
  <defs
     id="defs2" />
  <g
     inkscape:groupmode="layer"
     id="layer2"
     inkscape:label="Layer 2"
     style="stroke:#ffffff;stroke-opacity:1"
     transform="translate(-173.6068,-69.153429)">
    <path
       style="font-variation-settings:'wght' 500;fill:none;fill-opacity:1;stroke:#b3fab3;stroke-width:0.734999;stroke-dasharray:none;stroke-opacity:1"
       d="M 181.74283,69.752683 V 87.405177"
       id="path4304" />
    <path
       style="font-variation-settings:'wght' 500;fill:none;fill-opacity:1;stroke:#b3fab3;stroke-width:0.734999;stroke-dasharray:none;stroke-opacity:1"
       d="M 185.86378,69.752683 V 93.91705"
       id="path7600"
       sodipodi:nodetypes="cc" />
    <path
       style="font-variation-settings:'wght' 500;fill:none;fill-opacity:1;stroke:#b3fab3;stroke-width:0.734999;stroke-dasharray:none;stroke-opacity:1"
       d="M 189.81339,69.797805 V 98.490433"
       id="path7602" />
    <path
       style="font-variation-settings:'wght' 500;fill:none;fill-opacity:1;stroke:#69272c;stroke-width:0.734999;stroke-dasharray:none;stroke-opacity:1"
       d="M 202.77967,69.849436 V 108.8677"
       id="path7604"
       sodipodi:nodetypes="cc" />
    <path
       style="font-variation-settings:'wght' 500;fill:none;fill-opacity:1;stroke:#69272c;stroke-width:0.734999;stroke-dasharray:none;stroke-opacity:1"
       d="m 209.94865,69.710064 0.0334,42.898256"
       id="path7822"
       sodipodi:nodetypes="cc" />
    <ellipse
       style="font-variation-settings:'wght' 500;fill:none;fill-opacity:1;stroke:#69272c;stroke-width:0.734999;stroke-dasharray:none;stroke-opacity:1"
       id="path7876"
       cx="176.62338"
       cy="100.22129"
       rx="0.95262355"
       ry="0.95929599" />
    <ellipse
       style="font-variation-settings:'wght' 500;fill:none;fill-opacity:1;stroke:#69272c;stroke-width:0.734999;stroke-dasharray:none;stroke-opacity:1"
       id="path7878"
       cx="179.56184"
       cy="111.40922"
       rx="2.0512717"
       ry="2.0371568" />
    <ellipse
       style="font-variation-settings:'wght' 500;fill:none;fill-opacity:1;stroke:#69272c;stroke-width:0.734999;stroke-dasharray:none;stroke-opacity:1"
       id="path7880"
       cx="185.1313"
       cy="104.28379"
       rx="2.8237386"
       ry="2.8419595" />
    <rect
       style="font-variation-settings:'wght' 500;fill:none;fill-opacity:1;stroke:#69272c;stroke-width:0.734999;stroke-dasharray:none;stroke-opacity:1"
       id="rect7934"
       width="7.6729341"
       height="6.6806235"
       x="189.29903"
       y="108.3356"
       ry="1.6437746" />
    <ellipse
       style="font-variation-settings:'wght' 500;fill:none;fill-opacity:1;stroke:#69272c;stroke-width:0.674595;stroke-dasharray:none;stroke-opacity:1"
       id="path7936"
       cx="187.30608"
       cy="113.83306"
       rx="1.1557374"
       ry="1.1562519" />
    <rect
       style="font-variation-settings:'wght' 500;fill:none;fill-opacity:1;stroke:#66bab3;stroke-width:0.997922;stroke-dasharray:none;stroke-opacity:1"
       id="rect3828"
       width="45.953793"
       height="46.45512"
       x="174.10576"
       y="69.65239"
       ry="1.6439115" />
    <path
       style="font-variation-settings:'wght' 500;fill:none;fill-opacity:1;stroke:#66bab3;stroke-width:0.734999;stroke-dasharray:none;stroke-opacity:1"
       d="m 174.66021,70.003764 c 10.53189,40.864326 45.39278,45.502606 45.39278,45.502606"
       id="path4302"
       sodipodi:nodetypes="cc" />
    <g
       aria-label="Mountain"
       id="text8177"
       style="font-size:10.5771px;font-family:Comfortaa;-inkscape-font-specification:'Comfortaa, @wght=700';font-variation-settings:'wght' 700;fill:#78cd1a;stroke:none;stroke-width:1.17531">
      <path
         d="m 202.88849,82.455185 c -0.15235,0 -0.80012,-0.05289 -0.904,-0.158657 -0.10386,-0.105771 -0.1558,-0.236221 -0.1558,-0.391352 v -7.160697 c 0,-0.162182 0.0519,-0.292633 0.1558,-0.391353 0.10388,-0.105771 0.75165,-0.158656 0.904,-0.158656 0.20774,0 0.367,0.09872 0.4778,0.296159 l 3.25116,6.631841 h -0.33238 l 3.16806,-6.631841 c 0.11081,-0.197439 0.27007,-0.296159 0.47781,-0.296159 0.15235,0 0.80012,0.05289 0.90399,0.158656 0.10387,0.09872 0.15581,0.229171 0.15581,0.391353 v 7.160697 c 0,0.155131 -0.0554,0.285581 -0.1662,0.391352 -0.10387,0.105771 -0.74818,0.158657 -0.8936,0.158657 -0.15234,0 -0.28045,-0.05289 -0.38432,-0.158657 -0.10387,-0.105771 -0.15581,-0.236221 -0.15581,-0.391352 v -5.637594 l 0.20774,-0.05289 -2.72142,5.648171 c -0.11772,0.183337 -0.27353,0.275005 -0.46742,0.275005 -0.22851,0 -0.39471,-0.109297 -0.49858,-0.32789 l -2.69026,-5.489515 0.20774,-0.05288 v 5.637594 c 0,0.155131 -0.052,0.285581 -0.1558,0.391352 -0.10387,0.105771 -0.23198,0.158657 -0.38432,0.158657 z"
         id="path649"
         sodipodi:nodetypes="sssscsccccscsscssscccscccssss"
         style="stroke-width:1.16471" />
      <path
         d="m 215.22067,82.497493 q -0.85674,0 -1.51252,-0.370198 -0.65578,-0.380776 -1.03656,-1.036556 -0.3702,-0.666357 -0.3702,-1.523102 0,-0.867322 0.3702,-1.523103 0.38078,-0.666357 1.03656,-1.036555 0.65578,-0.380776 1.51252,-0.380776 0.84617,0 1.50195,0.380776 0.65578,0.370198 1.02598,1.036555 0.38077,0.655781 0.38077,1.523103 0,0.856745 -0.37019,1.523102 -0.3702,0.65578 -1.02598,1.036556 -0.65578,0.370198 -1.51253,0.370198 z m 0,-0.951939 q 0.55001,0 0.97309,-0.25385 0.42309,-0.25385 0.65578,-0.698089 0.24328,-0.444238 0.24328,-1.025978 0,-0.581741 -0.24328,-1.025979 -0.23269,-0.454815 -0.65578,-0.708666 -0.42308,-0.25385 -0.97309,-0.25385 -0.55001,0 -0.97309,0.25385 -0.42309,0.253851 -0.66636,0.708666 -0.24327,0.444238 -0.24327,1.025979 0,0.58174 0.24327,1.025978 0.24327,0.444239 0.66636,0.698089 0.42308,0.25385 0.97309,0.25385 z"
         id="path651" />
      <path
         d="m 222.28686,82.50807 c -0.48655,0 -1.25309,0.0064 -1.64092,-0.198046 -0.38078,-0.211542 -0.8838,-0.626967 -1.10944,-1.028897 -0.21859,-0.40193 -0.32789,-0.895528 -0.32789,-1.480794 v -2.601967 c 0,-0.155131 0.0494,-0.282056 0.14808,-0.380775 0.10577,-0.105771 0.76539,-0.158657 0.92052,-0.158657 0.15513,0 0.28206,0.05289 0.38078,0.158657 0.10577,0.09872 0.15865,0.225644 0.15865,0.380775 v 2.601967 c 0,0.394878 0.074,0.722768 0.22212,0.98367 0.14808,0.253851 0.34905,0.444239 0.6029,0.571164 0.25385,0.119873 0.53943,0.17981 0.85674,0.17981 0.30321,0 0.57117,-0.05994 0.80386,-0.17981 0.23975,-0.119874 0.43013,-0.282056 0.57116,-0.486547 0.14103,-0.204491 0.21155,-0.433661 0.21155,-0.687512 h 0.66635 c 0,0.437187 -0.1093,0.832066 -0.32789,1.184636 -0.21154,0.35257 -0.50417,0.6311 -0.8779,0.835591 -0.36667,0.20449 -0.78623,0.306735 -1.25867,0.306735 z m 2.33754,-0.05289 c -0.15513,0 -0.28558,-0.04936 -0.39135,-0.148079 -0.0987,-0.105771 -0.14808,-0.236222 -0.14808,-0.391353 v -4.717387 c 0,-0.162182 0.0494,-0.292633 0.14808,-0.391352 0.10577,-0.09872 0.23622,-0.14808 0.39135,-0.14808 0.16218,0 0.29263,0.04936 0.39135,0.14808 0.0987,0.09872 0.14808,0.22917 0.14808,0.391352 v 4.717387 c 0,0.155131 -0.0494,0.285582 -0.14808,0.391353 -0.0987,0.09872 -0.22917,0.148079 -0.39135,0.148079 z"
         id="path653"
         sodipodi:nodetypes="sccsssscssccscsccccsscsscsssscs" />
      <path
         d="m 231.45182,82.465762 q -0.2327,0 -0.39135,-0.148079 -0.14808,-0.158657 -0.14808,-0.391353 v -2.601967 q 0,-0.602894 -0.22212,-0.98367 -0.22212,-0.380775 -0.6029,-0.560586 -0.3702,-0.190388 -0.85674,-0.190388 -0.44424,0 -0.80386,0.179811 -0.35962,0.17981 -0.57116,0.486546 -0.21155,0.296159 -0.21155,0.687512 h -0.66635 q 0,-0.666357 0.31731,-1.184635 0.32789,-0.528855 0.88848,-0.835591 0.56058,-0.306736 1.25867,-0.306736 0.72982,0 1.30098,0.317313 0.58174,0.306736 0.90963,0.90963 0.33847,0.602895 0.33847,1.480794 v 2.601967 q 0,0.232696 -0.15866,0.391353 -0.14807,0.148079 -0.38077,0.148079 z m -4.34719,0 q -0.23269,0 -0.39135,-0.148079 -0.14808,-0.158657 -0.14808,-0.391353 v -4.717387 q 0,-0.243273 0.14808,-0.391352 0.15866,-0.14808 0.39135,-0.14808 0.24327,0 0.39135,0.14808 0.14808,0.148079 0.14808,0.391352 v 4.717387 q 0,0.232696 -0.14808,0.391353 -0.14808,0.148079 -0.39135,0.148079 z"
         id="path655" />
      <path
         d="m 235.88362,82.455185 q -0.52886,0 -0.95194,-0.264428 -0.42309,-0.275004 -0.66636,-0.740397 -0.24327,-0.465392 -0.24327,-1.047132 v -5.045277 q 0,-0.232696 0.14808,-0.380776 0.14807,-0.148079 0.38077,-0.148079 0.2327,0 0.38078,0.148079 0.14808,0.14808 0.14808,0.380776 v 5.045277 q 0,0.423084 0.23269,0.708665 0.2327,0.285582 0.57117,0.285582 h 0.35962 q 0.19038,0 0.31731,0.148079 0.1375,0.14808 0.1375,0.380776 0,0.232696 -0.17981,0.380776 -0.16923,0.148079 -0.44424,0.148079 z m -2.34812,-4.664501 q -0.22212,0 -0.35962,-0.126925 -0.1375,-0.126925 -0.1375,-0.317313 0,-0.211542 0.1375,-0.338467 0.1375,-0.126926 0.35962,-0.126926 h 2.44331 q 0.22212,0 0.35962,0.126926 0.1375,0.126925 0.1375,0.338467 0,0.190388 -0.1375,0.317313 -0.1375,0.126925 -0.35962,0.126925 z"
         id="path657" />
      <path
         d="m 240.43176,82.497493 q -0.77213,0 -1.3856,-0.380775 -0.61347,-0.391353 -0.97309,-1.047133 -0.34905,-0.666357 -0.34905,-1.501948 0,-0.835591 0.38078,-1.501948 0.39135,-0.666358 1.04713,-1.047133 0.66636,-0.391353 1.49137,-0.391353 0.82501,0 1.48079,0.391353 0.65578,0.380775 1.03656,1.047133 0.39135,0.666357 0.39135,1.501948 h -0.4125 q 0,0.835591 -0.35963,1.501948 -0.34904,0.65578 -0.96251,1.047133 -0.61347,0.380775 -1.3856,0.380775 z m 0.21154,-0.951939 q 0.53943,0 0.96252,-0.25385 0.42308,-0.264428 0.66635,-0.708666 0.24328,-0.454815 0.24328,-1.015401 0,-0.571164 -0.24328,-1.015402 -0.24327,-0.454815 -0.66635,-0.708666 -0.42309,-0.264427 -0.96252,-0.264427 -0.52885,0 -0.96252,0.264427 -0.42308,0.253851 -0.67693,0.708666 -0.24327,0.444238 -0.24327,1.015402 0,0.560586 0.24327,1.015401 0.25385,0.444238 0.67693,0.708666 0.43367,0.25385 0.96252,0.25385 z m 2.36927,0.920208 q -0.2327,0 -0.39135,-0.148079 -0.14808,-0.158657 -0.14808,-0.391353 v -1.618296 l 0.20096,-1.121173 0.8779,0.380776 v 2.358693 q 0,0.232696 -0.15865,0.391353 -0.14808,0.148079 -0.38078,0.148079 z"
         id="path659" />
      <path
         d="m 245.80492,82.455185 q -0.2327,0 -0.39136,-0.148079 -0.14808,-0.158657 -0.14808,-0.391353 v -4.70681 q 0,-0.243273 0.14808,-0.391352 0.15866,-0.14808 0.39136,-0.14808 0.24327,0 0.39135,0.14808 0.14808,0.148079 0.14808,0.391352 v 4.70681 q 0,0.232696 -0.14808,0.391353 -0.14808,0.148079 -0.39135,0.148079 z m 0,-6.727036 q -0.28558,0 -0.49713,-0.200964 -0.20096,-0.211542 -0.20096,-0.497124 0,-0.285582 0.20096,-0.486547 0.21155,-0.211542 0.49713,-0.211542 0.28558,0 0.48654,0.211542 0.21155,0.200965 0.21155,0.486547 0,0.285582 -0.21155,0.497124 -0.20096,0.200964 -0.48654,0.200964 z"
         id="path661" />
      <path
         d="m 253.24062,82.465762 q -0.2327,0 -0.39135,-0.148079 -0.14808,-0.158657 -0.14808,-0.391353 v -2.601967 q 0,-0.602894 -0.22212,-0.98367 -0.22212,-0.380775 -0.6029,-0.560586 -0.37019,-0.190388 -0.85674,-0.190388 -0.44424,0 -0.80386,0.179811 -0.35962,0.17981 -0.57116,0.486546 -0.21155,0.296159 -0.21155,0.687512 h -0.66635 q 0,-0.666357 0.31731,-1.184635 0.32789,-0.528855 0.88848,-0.835591 0.56058,-0.306736 1.25867,-0.306736 0.72982,0 1.30098,0.317313 0.58175,0.306736 0.90964,0.90963 0.33846,0.602895 0.33846,1.480794 v 2.601967 q 0,0.232696 -0.15865,0.391353 -0.14808,0.148079 -0.38078,0.148079 z m -4.34719,0 q -0.23269,0 -0.39135,-0.148079 Q 248.354,82.159026 248.354,81.92633 v -4.717387 q 0,-0.243273 0.14808,-0.391352 0.15866,-0.14808 0.39135,-0.14808 0.24328,0 0.39136,0.14808 0.14807,0.148079 0.14807,0.391352 v 4.717387 q 0,0.232696 -0.14807,0.391353 -0.14808,0.148079 -0.39136,0.148079 z"
         id="path663" />
    </g>
  </g>
</svg>
